<mxfile host="app.diagrams.net" modified="2024-04-11T22:01:44.574Z" agent="Mozilla/5.0 (Windows NT 10.0; Win64; x64) AppleWebKit/537.36 (KHTML, like Gecko) Chrome/123.0.0.0 Safari/537.36" etag="nzjhLL8KvWpOJMlX2riw" version="24.2.3" type="github">
  <diagram name="Page-1" id="R8laXDRC6GvlOQ-kIE2n">
    <mxGraphModel dx="1434" dy="746" grid="1" gridSize="10" guides="1" tooltips="1" connect="1" arrows="1" fold="1" page="1" pageScale="1" pageWidth="850" pageHeight="1100" math="0" shadow="0">
      <root>
        <mxCell id="0" />
        <mxCell id="1" parent="0" />
        <mxCell id="0qwkw96AeZjLtnNNhL9u-28" value="" style="shape=table;startSize=0;container=1;collapsible=0;childLayout=tableLayout;fontSize=13;" vertex="1" parent="1">
          <mxGeometry x="20" y="50" width="405" height="120" as="geometry" />
        </mxCell>
        <mxCell id="0qwkw96AeZjLtnNNhL9u-29" value="" style="shape=tableRow;horizontal=0;startSize=0;swimlaneHead=0;swimlaneBody=0;strokeColor=inherit;top=0;left=0;bottom=0;right=0;collapsible=0;dropTarget=0;fillColor=none;points=[[0,0.5],[1,0.5]];portConstraint=eastwest;fontSize=16;" vertex="1" parent="0qwkw96AeZjLtnNNhL9u-28">
          <mxGeometry width="405" height="20" as="geometry" />
        </mxCell>
        <mxCell id="0qwkw96AeZjLtnNNhL9u-30" value="&lt;font style=&quot;font-size: 12px;&quot;&gt;Home/Landing&lt;/font&gt;" style="shape=partialRectangle;html=1;whiteSpace=wrap;connectable=0;strokeColor=inherit;overflow=hidden;fillColor=none;top=0;left=0;bottom=0;right=0;pointerEvents=1;fontSize=16;" vertex="1" parent="0qwkw96AeZjLtnNNhL9u-29">
          <mxGeometry width="135" height="20" as="geometry">
            <mxRectangle width="135" height="20" as="alternateBounds" />
          </mxGeometry>
        </mxCell>
        <mxCell id="0qwkw96AeZjLtnNNhL9u-31" value="&lt;font style=&quot;font-size: 12px;&quot;&gt;Updates&lt;/font&gt;" style="shape=partialRectangle;html=1;whiteSpace=wrap;connectable=0;strokeColor=inherit;overflow=hidden;fillColor=none;top=0;left=0;bottom=0;right=0;pointerEvents=1;fontSize=16;" vertex="1" parent="0qwkw96AeZjLtnNNhL9u-29">
          <mxGeometry x="135" width="135" height="20" as="geometry">
            <mxRectangle width="135" height="20" as="alternateBounds" />
          </mxGeometry>
        </mxCell>
        <mxCell id="0qwkw96AeZjLtnNNhL9u-32" value="&lt;font style=&quot;font-size: 12px;&quot;&gt;Events&lt;/font&gt;" style="shape=partialRectangle;html=1;whiteSpace=wrap;connectable=0;strokeColor=inherit;overflow=hidden;fillColor=none;top=0;left=0;bottom=0;right=0;pointerEvents=1;fontSize=16;" vertex="1" parent="0qwkw96AeZjLtnNNhL9u-29">
          <mxGeometry x="270" width="135" height="20" as="geometry">
            <mxRectangle width="135" height="20" as="alternateBounds" />
          </mxGeometry>
        </mxCell>
        <mxCell id="0qwkw96AeZjLtnNNhL9u-33" value="" style="shape=tableRow;horizontal=0;startSize=0;swimlaneHead=0;swimlaneBody=0;strokeColor=inherit;top=0;left=0;bottom=0;right=0;collapsible=0;dropTarget=0;fillColor=none;points=[[0,0.5],[1,0.5]];portConstraint=eastwest;fontSize=16;" vertex="1" parent="0qwkw96AeZjLtnNNhL9u-28">
          <mxGeometry y="20" width="405" height="100" as="geometry" />
        </mxCell>
        <mxCell id="0qwkw96AeZjLtnNNhL9u-34" value="&lt;font style=&quot;font-size: 12px;&quot;&gt;Active Tournaments&lt;/font&gt;&lt;div style=&quot;font-size: 12px;&quot;&gt;&lt;font style=&quot;font-size: 12px;&quot;&gt;Active Leaderboards&lt;/font&gt;&lt;/div&gt;&lt;div style=&quot;font-size: 12px;&quot;&gt;Upcoming Events&lt;/div&gt;" style="shape=partialRectangle;html=1;whiteSpace=wrap;connectable=0;strokeColor=inherit;overflow=hidden;fillColor=none;top=0;left=0;bottom=0;right=0;pointerEvents=1;fontSize=16;" vertex="1" parent="0qwkw96AeZjLtnNNhL9u-33">
          <mxGeometry width="135" height="100" as="geometry">
            <mxRectangle width="135" height="100" as="alternateBounds" />
          </mxGeometry>
        </mxCell>
        <mxCell id="0qwkw96AeZjLtnNNhL9u-35" value="&lt;font style=&quot;font-size: 12px;&quot;&gt;Connection&#39;s recent scores&lt;/font&gt;&lt;div&gt;&lt;font style=&quot;font-size: 12px;&quot;&gt;Recent Tournament results&lt;/font&gt;&lt;div style=&quot;font-size: 12px;&quot;&gt;&lt;br&gt;&lt;/div&gt;&lt;/div&gt;" style="shape=partialRectangle;html=1;whiteSpace=wrap;connectable=0;strokeColor=inherit;overflow=hidden;fillColor=none;top=0;left=0;bottom=0;right=0;pointerEvents=1;fontSize=16;" vertex="1" parent="0qwkw96AeZjLtnNNhL9u-33">
          <mxGeometry x="135" width="135" height="100" as="geometry">
            <mxRectangle width="135" height="100" as="alternateBounds" />
          </mxGeometry>
        </mxCell>
        <mxCell id="0qwkw96AeZjLtnNNhL9u-36" value="&lt;font style=&quot;font-size: 12px;&quot;&gt;Upcoming Events&lt;/font&gt;&lt;div&gt;&lt;font style=&quot;font-size: 12px;&quot;&gt;Past Events&lt;/font&gt;&lt;/div&gt;&lt;div&gt;&lt;font style=&quot;font-size: 12px;&quot;&gt;All Events&lt;/font&gt;&lt;/div&gt;" style="shape=partialRectangle;html=1;whiteSpace=wrap;connectable=0;strokeColor=inherit;overflow=hidden;fillColor=none;top=0;left=0;bottom=0;right=0;pointerEvents=1;fontSize=16;" vertex="1" parent="0qwkw96AeZjLtnNNhL9u-33">
          <mxGeometry x="270" width="135" height="100" as="geometry">
            <mxRectangle width="135" height="100" as="alternateBounds" />
          </mxGeometry>
        </mxCell>
        <mxCell id="0qwkw96AeZjLtnNNhL9u-44" value="" style="shape=table;startSize=0;container=1;collapsible=0;childLayout=tableLayout;fontSize=16;" vertex="1" parent="1">
          <mxGeometry x="425" y="50" width="405" height="120" as="geometry" />
        </mxCell>
        <mxCell id="0qwkw96AeZjLtnNNhL9u-45" value="" style="shape=tableRow;horizontal=0;startSize=0;swimlaneHead=0;swimlaneBody=0;strokeColor=inherit;top=0;left=0;bottom=0;right=0;collapsible=0;dropTarget=0;fillColor=none;points=[[0,0.5],[1,0.5]];portConstraint=eastwest;fontSize=16;" vertex="1" parent="0qwkw96AeZjLtnNNhL9u-44">
          <mxGeometry width="405" height="20" as="geometry" />
        </mxCell>
        <mxCell id="0qwkw96AeZjLtnNNhL9u-46" value="&lt;font style=&quot;font-size: 12px;&quot;&gt;Games&lt;/font&gt;" style="shape=partialRectangle;html=1;whiteSpace=wrap;connectable=0;strokeColor=inherit;overflow=hidden;fillColor=none;top=0;left=0;bottom=0;right=0;pointerEvents=1;fontSize=16;" vertex="1" parent="0qwkw96AeZjLtnNNhL9u-45">
          <mxGeometry width="135" height="20" as="geometry">
            <mxRectangle width="135" height="20" as="alternateBounds" />
          </mxGeometry>
        </mxCell>
        <mxCell id="0qwkw96AeZjLtnNNhL9u-47" value="&lt;font style=&quot;font-size: 12px;&quot;&gt;Profile&lt;/font&gt;" style="shape=partialRectangle;html=1;whiteSpace=wrap;connectable=0;strokeColor=inherit;overflow=hidden;fillColor=none;top=0;left=0;bottom=0;right=0;pointerEvents=1;fontSize=16;" vertex="1" parent="0qwkw96AeZjLtnNNhL9u-45">
          <mxGeometry x="135" width="135" height="20" as="geometry">
            <mxRectangle width="135" height="20" as="alternateBounds" />
          </mxGeometry>
        </mxCell>
        <mxCell id="0qwkw96AeZjLtnNNhL9u-48" value="&lt;font style=&quot;font-size: 12px;&quot;&gt;Settings/ETC&lt;/font&gt;" style="shape=partialRectangle;html=1;whiteSpace=wrap;connectable=0;strokeColor=inherit;overflow=hidden;fillColor=none;top=0;left=0;bottom=0;right=0;pointerEvents=1;fontSize=16;" vertex="1" parent="0qwkw96AeZjLtnNNhL9u-45">
          <mxGeometry x="270" width="135" height="20" as="geometry">
            <mxRectangle width="135" height="20" as="alternateBounds" />
          </mxGeometry>
        </mxCell>
        <mxCell id="0qwkw96AeZjLtnNNhL9u-49" value="" style="shape=tableRow;horizontal=0;startSize=0;swimlaneHead=0;swimlaneBody=0;strokeColor=inherit;top=0;left=0;bottom=0;right=0;collapsible=0;dropTarget=0;fillColor=none;points=[[0,0.5],[1,0.5]];portConstraint=eastwest;fontSize=16;" vertex="1" parent="0qwkw96AeZjLtnNNhL9u-44">
          <mxGeometry y="20" width="405" height="100" as="geometry" />
        </mxCell>
        <mxCell id="0qwkw96AeZjLtnNNhL9u-50" value="&lt;font style=&quot;font-size: 12px;&quot;&gt;Recently Viewed Games&lt;/font&gt;&lt;div style=&quot;font-size: 12px;&quot;&gt;&lt;font style=&quot;font-size: 12px;&quot;&gt;All game records&lt;/font&gt;&lt;/div&gt;" style="shape=partialRectangle;html=1;whiteSpace=wrap;connectable=0;strokeColor=inherit;overflow=hidden;fillColor=none;top=0;left=0;bottom=0;right=0;pointerEvents=1;fontSize=16;" vertex="1" parent="0qwkw96AeZjLtnNNhL9u-49">
          <mxGeometry width="135" height="100" as="geometry">
            <mxRectangle width="135" height="100" as="alternateBounds" />
          </mxGeometry>
        </mxCell>
        <mxCell id="0qwkw96AeZjLtnNNhL9u-51" value="&lt;br&gt;&lt;div style=&quot;forced-color-adjust: none; color: rgb(0, 0, 0); font-family: Helvetica; font-size: 12px; font-style: normal; font-variant-ligatures: normal; font-variant-caps: normal; font-weight: 400; letter-spacing: normal; orphans: 2; text-align: center; text-indent: 0px; text-transform: none; widows: 2; word-spacing: 0px; -webkit-text-stroke-width: 0px; white-space: normal; background-color: rgb(251, 251, 251); text-decoration-thickness: initial; text-decoration-style: initial; text-decoration-color: initial;&quot;&gt;IFPA Number&lt;/div&gt;&lt;div style=&quot;forced-color-adjust: none; color: rgb(0, 0, 0); font-family: Helvetica; font-size: 12px; font-style: normal; font-variant-ligatures: normal; font-variant-caps: normal; font-weight: 400; letter-spacing: normal; orphans: 2; text-align: center; text-indent: 0px; text-transform: none; widows: 2; word-spacing: 0px; -webkit-text-stroke-width: 0px; white-space: normal; background-color: rgb(251, 251, 251); text-decoration-thickness: initial; text-decoration-style: initial; text-decoration-color: initial;&quot;&gt;IFPA Rankings&lt;/div&gt;&lt;span style=&quot;color: rgb(0, 0, 0); font-family: Helvetica; font-size: 12px; font-style: normal; font-variant-ligatures: normal; font-variant-caps: normal; font-weight: 400; letter-spacing: normal; orphans: 2; text-align: center; text-indent: 0px; text-transform: none; widows: 2; word-spacing: 0px; -webkit-text-stroke-width: 0px; white-space: normal; background-color: rgb(251, 251, 251); text-decoration-thickness: initial; text-decoration-style: initial; text-decoration-color: initial; display: inline !important; float: none;&quot;&gt;Tournament History&lt;/span&gt;&lt;div&gt;&lt;span style=&quot;font-size: 12px;&quot;&gt;Record History&lt;br&gt;&lt;/span&gt;&lt;br&gt;&lt;/div&gt;" style="shape=partialRectangle;html=1;whiteSpace=wrap;connectable=0;strokeColor=inherit;overflow=hidden;fillColor=none;top=0;left=0;bottom=0;right=0;pointerEvents=1;fontSize=16;" vertex="1" parent="0qwkw96AeZjLtnNNhL9u-49">
          <mxGeometry x="135" width="135" height="100" as="geometry">
            <mxRectangle width="135" height="100" as="alternateBounds" />
          </mxGeometry>
        </mxCell>
        <mxCell id="0qwkw96AeZjLtnNNhL9u-52" value="&lt;font style=&quot;font-size: 12px;&quot;&gt;Login/Logout&lt;/font&gt;" style="shape=partialRectangle;html=1;whiteSpace=wrap;connectable=0;strokeColor=inherit;overflow=hidden;fillColor=none;top=0;left=0;bottom=0;right=0;pointerEvents=1;fontSize=16;" vertex="1" parent="0qwkw96AeZjLtnNNhL9u-49">
          <mxGeometry x="270" width="135" height="100" as="geometry">
            <mxRectangle width="135" height="100" as="alternateBounds" />
          </mxGeometry>
        </mxCell>
        <mxCell id="0qwkw96AeZjLtnNNhL9u-57" value="Add button/Search Button" style="rounded=0;whiteSpace=wrap;html=1;" vertex="1" parent="1">
          <mxGeometry x="20" y="20" width="810" height="30" as="geometry" />
        </mxCell>
      </root>
    </mxGraphModel>
  </diagram>
</mxfile>
